<svg xmlns="http://www.w3.org/2000/svg" viewBox="0 0 1323.1 846.1">
  <defs/>
  <path fill="#FFF4E8" d="M854 92s36.4-33.6 44.7-36.4c8.3-2.8 1.2 1.7 21.4 6.6 20.2 4.9 45 4.9 45 4.9s25.5 13.1 25.8 29.7c.4 16.6-7.9 45.1-19.8 52.2-11.9 7.1-32.5 20-38.5 29s-.6 30.4 10 33.3c10.7 2.9 26.1 1.8 33.2 13.1 7.1 11.2 9.5 29.3 9.5 29.3l-20.3 27s-22.4 15.4-23.6 24.9c-1.2 9.5 3.6 26 3.6 26s15 26.8 10.7 32.2c-4.4 5.4-2.3 14.2-23.1 19-20.8 4.7-47.8 10.7-47.8 10.7s1.6 2-11.8 18.2-12.4 25.7-30.1 28.1c-17.7 2.4-65.9 4.7-75.6 0s-22.8-3.6-28.7 14.2c-5.9 17.8 11.9 28.5-8.3 34.4-20.2 5.9-47.1-7.9-49.1-18.2-2-10.3 14.6-3.9-4.4-22.5s-20.2-19.6-16.6-35.7c3.6-16.1 7.1-16.8-2.4-34.9-9.5-18.1-9.5-8.8-20.2-27.7s-3.1-20.4-8.7-35.7c-5.5-15.2-9.9-16.5-17.4-24.2-7.5-7.7-48.7 28.6-48.7 28.6s-13.4-5.4-22.1-14.9c-8.7-9.5-7.7-8.5-9.4-31s-.9-17.7 9.4-30.8c10.3-13.1 16.2-9.4 16.2-30.2s-17.8-29.5 5.9-29.9 2.4 11.1 30.9 0 35.6-20.6 59.3-13.5 49.3 20 56.7 10c7.4-10 12.3-17 12.3-17s5-14.2-6.5-26.7c-11.5-12.6-19.8-18.5-23.4-31.6S686.9 89.6 686 73s-9.8-23.7 0-38 15.7-32 31.1-32c15.4 0 29.3-11.9 37.2 11.9 7.9 23.7 8.4 12.1 8.1 39.9s-22.2 21.8-1.7 40.8c20.5 19 21.5 12 37.6 29.2 16.1 17.1-7 25.4 16.4 31.4s38.4-13.8 39.2-28.8.1-35.4.1-35.4z"/>
  <path fill="#FFF4E8" d="M429.9 672s14.8-8 20.2-8c5.3 0 16.8.6 19.6.8s3.8-5.1 11.1.2 7.9-.2 12.1 4.5c4.2 4.7 9.5 9.1 1 12.5-8.5 3.4-12.1-.2-21.2 6.9-9.1 7.1-11.5 10.7-19.6 11.1-8.1.4-17.4 2.8-22.2-2.6-4.7-5.3-8.4-5.1-9.9-9.4-1.5-4.3-4.4-4.8 0-7.8 4.4-2.9 8.9-8.2 8.9-8.2"/>
  <path fill="#FFF4E8" d="M153.6 535.8c6.3 2 6.3 2.4 8.7 5.5 2.4 3.2 4 2.4 5.5 6.7s2 4 5.1 7.5c3.2 3.6 4.2 8.6 4.1 9.3s-.9 1.6 3.5 6.8 4.6 8-.1 12.7-7.9 7.1-13.5 8.3c-5.5 1.2-15.2 2.8-17.1-2.8s-2.9-9.8 0-11.5 6 4.5 8-1.7-2.5-10.2-2.5-10.2-4.4-3.2-7.2-6.3c-2.9-3.1-3.6-1.1-5.6-4.3-2-3.2-2-7.1-2-7.1s3.6-8.3 4.4-9.5 8.7-3.4 8.7-3.4z"/>
  <g fill="#D05C32">
    <path d="M232.5 715.2c.8 0 1.3.2 1.3.6.8 3.7 2 8.4 3.6 14.1 1.2 6.2 2.2 10.2 2.9 12 0 .2-1.1.3-3.2.3-.5 0-1-.1-1.5-.1-.5.1-.8.1-1 .1-.2 0-.3-.4-.3-1.3l-.6-2.5h-.8c-.4 0-.8 0-1.1-.1-1.2.1-1.9.1-2.2.3-.1 0-.2-.1-.4-.1-.2.4-.4 1.6-.8 3.4l-.4.1s-.5 0-1.6-.1c-.2 0-.6 0-1.2.1-.2 0-.6 0-1.3-.1-.3 0-.5.1-.7.1h-.3v-.1l.6-2.7c.3 0 .6-1.8 1.1-5.5.1-.1.4-1.4.9-3.9 0-.6.4-2.3 1.2-5.1.2-2.2.8-4.8 1.6-7.8 0-1.1.2-1.6.7-1.6.3 0 .8 0 1.4.1 1.3-.1 2-.2 2.1-.2zm-1.5 13.2c-.6 3-.9 4.7-.9 5.2 1.1-.1 1.9-.2 2.3-.2l-1-5h-.4z"/>
    <path d="M249.4 714.6c2.5 0 4.3.8 5.4 2.5.7.6 1.3 2 1.7 4.4.1.9.2 1.4.4 1.4-.2.3-.2.5-.2.5l.1.4c0 1.1-.7 2.6-2 4.6-.1 0-.2.1-.4.3v-.1c1 1 1.6 2 2 3 .3 1 .4 2.1.5 3.2l-.1.4v.1l.1.4c-.6 2.7-1.6 4.6-2.8 5.5-.8.7-1.9 1.2-3.2 1.5 0 0-.2 0-.4.1-3.5 0-6-1.6-7.5-4.8-.4-1.5-.6-2.7-.7-3.6 0-1.4.3-2.1 1-2.1h.5c-.1 0-.2-.1-.2-.2l.5.2c.4 0 .8 0 1.1.1.3 0 .8-.1 1.4-.1.5 0 .7.3.8 1 0 2.5.6 4 1.7 4.4.5.2.9.3 1.3.3.5 0 .9-.4 1.4-1.3.2-.3.3-.4.3-.4h-.3c.2-.4.4-1.1.4-2.1 0-1.2-.5-2.2-1.4-3.2-.8-.4-1.3-.6-1.6-.6h-.6c-.5 0-.7-.2-.7-.6 0-1.2-.1-1.8-.1-1.9 0-.8.3-1.2 1-1.2 1.6 0 2.7-.8 3.2-2.4.1-1.3.2-2 .2-2.1-.4-1.7-.9-2.6-1.5-2.6 0-.1-.1-.2-.3-.2-1.5 0-2.5.8-2.9 2.5 0 0-.1.2-.1.5h.2l-.2.5v.6l.1 1.1-.6.1h-1.8c-.1 0-.4 0-1.1.1h-.4c-.5 0-.8-.3-.8-1v-1.4c0-1.8.7-3.8 2.1-6 1.1-1.1 2.6-1.8 4.5-1.8z"/>
    <path d="M266.7 713.8c2.2 0 4.1 1.1 5.7 3.3 1.1 2.1 1.7 4 1.7 5.5 0 2.2-.6 4.1-1.9 5.7v-.1c.8.8 1.4 2 1.8 3.9.1.6.2 1.3.2 2.1-.4 2.5-1 4.3-1.9 5.6-1.7 1.9-3.5 2.8-5.5 2.8l-.1-.1-.4.1c-1.3 0-2.9-.6-4.6-1.7-1.5-1.5-2.3-2.5-2.3-3.1-.4-.6-.6-1.4-.6-2.2v-1.8c0-1.7.6-3.4 1.7-5.1.6-.5.9-.7.9-.7-.8-1.1-1.4-2.6-1.7-4.5v-1.3c.3-2.6.6-3.9 1-3.9.8-1.8 2-3 3.4-3.8 1-.5 1.8-.7 2.6-.7zm-2.2 8.9c0 1.5.6 2.6 1.7 3.4l.6.1h.2c.8 0 1.3-.6 1.7-1.8.1-.8.2-1.5.2-2.1v-.2c-.3-2-.9-3-1.9-3 0-.1-.1-.1-.4-.1h-.1c-.7 0-1.4.8-1.9 2.4l-.1.5v.8zm0 11.7c0 1.5.4 2.6 1.3 3.2.3.2.5.3.7.3h.1c.5 0 .9-.3 1.4-1 .3-.8.5-1.7.6-2.6 0-2.7-.7-4.1-2-4.1-.9 0-1.6.9-2 2.6l-.1.9v.7z"/>
  </g>
  <g fill="#D05C32">
    <path d="M347.4 592.8c.3 0 .5.1.6.1v2.7c0 .2-.1.3-.3.3h-.5-.2-.9s0 .1-.1.3V596.5l.1 2.2v.2c0 .2 0 .3.1.3v.1c0 .3.1.6.1.8 0 .1 0 .5.1 1V604.3c0 .5-.1.7-.3.7-.1 0-.2 0-.4.1h-.5c-.2 0-.5 0-.9-.1-.4 0-.6-.1-.6-.4v-1-.5-.1-1-.6-.2V599.3l-.1-1.2c0-.4 0-.7.1-.8v-.2-1.3H342.2c-.1 0-.2-.1-.2-.2v-.3c0-.5 0-.8-.1-1V593.1c0-.2.1-.3.3-.3h1.3c.9.1 2.2 0 3.9 0z"/>
    <path d="M352.8 592.3c.5 0 1.1.2 1.6.7.8 1 1.2 1.7 1.2 2.3.1.1.3.9.5 2.4v.1l.1 1.3c0 .8-.3 2.2-.8 4-.3.6-.6 1.1-1.1 1.5-.7.4-1.3.6-1.9.6-.9-.2-1.5-.4-1.7-.7-.8-.8-1.4-1.9-1.7-3.2-.1 0-.2-.9-.3-2.6 0-.6.2-1.7.5-3.2.4-1 .7-1.6 1-1.9.4-.4.9-.7 1.6-1 0-.3.4-.3 1-.3zm-1.7 5v1.3c.1 2.3.5 3.7 1.3 4.1.1 0 .2.1.2.1.3 0 .5-.2.7-.5.3-1 .5-2 .5-3.1 0-2.2-.2-3.6-.7-4.3-.3-.2-.5-.3-.6-.3h-.1c-.3 0-.6.3-.9.9-.3 1.1-.4 1.7-.4 1.8z"/>
    <path d="M356.4 593h.9c.8 0 1.2.1 1.2.2.6 2 1.2 3.6 1.6 4.7.1 0 .4-.9.8-2.6.4-1.2.6-1.9.7-2.1H363.4c.3.1.4.1.4.1 0 .1-.8 2.3-2.4 6.8-.3.7-.4 1.3-.4 1.9v3c0 .1-.4.2-1.1.2h-.5c-.6 0-.8-.1-.8-.2v-.7-.3-.6-.5-.6-1.2l-2.1-5.9c0-.1-.2-.7-.6-2 .2-.2.3-.2.5-.2z"/>
    <path d="M367.8 592.3c.5 0 1.1.2 1.6.7.8 1 1.2 1.7 1.2 2.3.1.1.3.9.5 2.4v.1l.1 1.3c0 .8-.3 2.2-.8 4-.3.6-.6 1.1-1.1 1.5-.7.4-1.3.6-1.9.6-.9-.2-1.5-.4-1.7-.7-.8-.8-1.4-1.9-1.7-3.2-.1 0-.2-.9-.3-2.6 0-.6.2-1.7.5-3.2.4-1 .7-1.6 1-1.9.4-.4.9-.7 1.6-1 0-.3.4-.3 1-.3zm-1.8 5s.1 0 0 0v1.3c.1 2.3.5 3.7 1.3 4.1.1 0 .2.1.2.1.3 0 .5-.2.7-.5.3-1 .5-2 .5-3.1 0-2.2-.2-3.6-.7-4.3-.3-.2-.5-.3-.6-.3h-.1c-.3 0-.6.3-.9.9-.2 1.1-.4 1.7-.4 1.8z"/>
    <path d="M377 592.8c.3 0 .5.1.6.1v2.7c0 .2-.1.3-.3.3h-.5-.2-.9s0 .1-.1.3V596.5l.1 2.2v.2c0 .2 0 .3.1.3v.1c0 .3.1.6.1.8 0 .1 0 .5.1 1V604.3c0 .5-.1.7-.3.7-.1 0-.2 0-.4.1h-.5c-.2 0-.5 0-.9-.1-.4 0-.6-.1-.6-.4v-1-.5-.1-1-.6-.2V599.3l-.1-1.2c0-.4 0-.7.1-.8v-.2-1.3H371.8c-.1 0-.2-.1-.2-.2v-.3c0-.5 0-.8-.1-1V593.1c0-.2.1-.3.3-.3h1.3c.8.1 2.2 0 3.9 0z"/>
    <path d="M381.4 592.8c.4 0 .6.1.6.2.3 1.7.9 3.8 1.6 6.3.5 2.8 1 4.6 1.3 5.4 0 .1-.5.1-1.4.1h-.7c-.2 0-.4.1-.4.1-.1 0-.1-.2-.1-.6l-.3-1.1h-.8c-.5 0-.9.1-1 .1h-.2c-.1.2-.2.7-.4 1.5l-.2.1h-.7c-.1 0-.3 0-.6.1-.1 0-.3 0-.6-.1h-.5v-.1l.3-1.2c.1 0 .3-.8.5-2.5.1-.1.2-.6.4-1.7 0-.3.2-1 .5-2.3.1-1 .3-2.2.7-3.5 0-.5.1-.7.3-.7h.6c.7-.1 1-.1 1.1-.1zm-.7 5.9c-.3 1.4-.4 2.1-.4 2.3.5 0 .8-.1 1-.1l-.5-2.3h-.1z"/>
    <path d="M342.2 612.7c.4 0 .6.1.6.1h.6c.3 0 .6-.1.8-.1.3 0 .4.1.4.4V616.5c0 .5 0 1.3-.1 2.3V620.7c0 .3 0 .9.1 1.9v1.5c0 .5-.1.8-.3.8-.4 0-.7 0-.9-.1h-.5c-.4 0-.7.1-1 .1-.1 0-.2-.1-.2-.3v-.4-.4c0-.2.1-.7.1-1.5V622v-.4-.2-.4c0-.4 0-.8-.1-1.2v-.2l-.1-2.1.1-1.5v-.4c-.1-1.4-.2-2.2-.2-2.4v-.6c.1-.1.2-.1.2-.1h.5z"/>
    <path d="M349.5 612.1c.9.1 1.5.2 1.8.4.7.6 1.1 1.2 1.2 1.8l.2.6v1.2c0 .3-.2.5-.5.5h-.7-.8c-.2 0-.3-.2-.3-.7v-.1c0-.7-.2-1.1-.5-1.3-.2-.1-.3-.1-.4-.1-.6.1-.9.5-.9 1v-.1c0 .9.7 1.8 2.1 2.5 0 .1.3.4.9.9.5.6.9 1.3 1.1 2.2.1.3.1.5.1.6 0 1.6-.6 2.7-1.6 3.2-.7.2-1.2.4-1.5.4-.5 0-1.2-.2-2-.5-.7-.5-1.2-1-1.4-1.7-.3-.6-.4-1.3-.4-2v-.4c0-.2.1-.2.3-.3h2c.2 0 .4.2.4.6v.4c0 .6.2 1 .7 1.2l.4.1h.1c.5-.1.7-.5.7-1.1 0-.4-.4-1-1.1-1.6-.8-.5-1.5-1-2.1-1.5-.7-.8-1.1-1.6-1.1-2.3v-.4c0-.8.3-1.5.8-2.1.5-.9 1.3-1.4 2.5-1.4z"/>
    <path d="M355.6 612.7l.5.1v3.2c0 .2 0 .9.1 1.9 0 .5.1.9.1 1.4v2.3l.1.5h.4c.6 0 .9-.1 1-.1.2 0 .4 0 .7.1h.6c.1 0 .2.2.2.6 0 .2-.1.3-.1.3 0 .4 0 .9-.1 1.5 0 .2-.1.4-.3.4h-1.5-.1H356.9c-.1 0-.2-.1-.4-.1h-.5c-.3 0-1 0-2.1.1-.3 0-.4-.1-.4-.3v-2.1-.5-.4V619.9v-.5V619.1c0-.4 0-.6-.1-.6v-.2-1.2-2.1-.1-.6-.2-1.1c0-.1.1-.2.3-.3l.6.1c.1-.1.3-.1.5-.1h.8z"/>
    <path d="M364.1 612.6c.4 0 .6.1.6.3.3 1.7.9 3.8 1.6 6.3.5 2.8 1 4.6 1.3 5.4 0 .1-.5.1-1.4.1h-.7c-.2 0-.4.1-.4.1-.1 0-.1-.2-.1-.6l-.3-1.1h-.8c-.5 0-.9.1-1 .1h-.2c-.1.2-.2.7-.4 1.5l-.2.1h-.7c-.1 0-.3 0-.6.1-.1 0-.3 0-.6-.1h-.4v-.1l.3-1.2c.1 0 .3-.8.5-2.5.1-.1.2-.6.4-1.7 0-.3.2-1 .5-2.3.1-1 .3-2.2.7-3.5 0-.5.1-.7.3-.7h.6c.6-.1.9-.2 1-.2zm-.7 6c-.3 1.4-.4 2.1-.4 2.3.5 0 .8-.1 1-.1l-.5-2.3h-.1z"/>
    <path d="M369.9 612.7c.5 0 .7.1.7.3 0 .2.6 1.9 1.9 5v-.1c0-.5-.1-.8-.1-1v-.3c0-.2.1-.3.1-.4v-1.4-.3-1.3c0-.2.2-.3.5-.3l.5-.1c.2 0 .5.1.9.1h.1c.2 0 .3.1.3.2v.5c0 .8 0 1.3-.1 1.5V617s0 .2-.1.5v.5c0 .1.1.7.1 1.8v.7c0 .2 0 .6-.1 1.4 0 .5.1 1 .1 1.6v1.3c0 .3-.2.5-.4.5H373.5h-.1c-.4 0-.7.1-.8.1-.3 0-.5-.2-.6-.7l-.7-2.5c-.2-.7-.5-1.3-.9-2-.1-.1-.1-.2-.2-.3v1c0 .4 0 .6-.1.6v.8c0 .1 0 .5.1 1.4v1.5c0 .3-.1.5-.4.5H368.1h-.3s-.1-.1-.1-.2v-.3-.5-.3-.3-.2-.1-.8-.1c0-1 0-1.5.1-1.6v-.1-1.2l-.2-1.3v-.2-1-.1c0-.5 0-1.4.1-2.6v-.2-.1l.1-.5v-.3c.3-.9.9-1 2.1-1z"/>
    <path d="M376.6 612.8l1.3-.1H378.2c1.5 0 2.3.2 2.6.7.6.5 1 1.1 1.1 1.7.3.5.5 1.2.5 2.2 0 0 .1.3.1.7v.1c0 .2 0 .6-.1 1.1v1c-.1 1.1-.2 1.7-.4 2l-.6 1.2c-.4.5-.9.9-1.5 1.1-.2.1-.6.2-1 .3h-.5c-.6 0-1.3 0-1.9-.1-.1 0-.2-.1-.2-.1h-.2c-.1 0-.2-.1-.2-.1 0-.2 0-.7-.1-1.6l.2-1.5v-.1l.1-1.3v-.1-.6l-.1-.7v-.1-.8-.4-.9-.4-.1c0-.2 0-.3-.1-.3l.1-.9v-.1c0-.1 0-.5-.1-1.3v-.4c0-.2.1-.4.3-.4h.4c-.1.3-.1.3 0 .3-.1 0 0 0 0 0zm1.6 2.5l-.1.3v1c.1.7.1 1.5.1 2.4 0 .2 0 .7-.1 1.5 0 0 0 .2-.1.5v1.6c0 .1.1.1.2.1h.1c.4 0 .8-.2 1.2-.5.3-.8.5-1.9.5-3.3v-.2c-.1-1.9-.3-2.9-.5-2.9l-.5-.5h-.3-.5z"/>
  </g>
  <path fill="#1B1D3C" d="M183 846.1l-5-4.9c.5-.5 47.5-49.1 56-59.2 4.7-5.6 18.1-12.9 33.5-21.3 14.5-7.9 30.9-16.8 39.1-24.2 16.5-14.7 189.6-249 199.2-266.5 4.5-8.2 8.8-21.3 13.7-36.4 5.4-16.6 11.6-35.5 20.2-55.1 13.4-30.7 29.5-56.9 37.2-69.5 1.9-3 3.3-5.4 4.1-6.8 2.4-4.2 12.6-17.7 22.4-30.8 7.5-9.9 14.6-19.2 17.3-23.3 3.3-4.9 6.2-10.1 9.5-16.1 2.9-5.2 6.1-11.1 10.2-17.8 5.1-8.3 11.6-12.2 17.9-15.9 5.3-3.2 10.3-6.2 14.8-11.8 3.6-4.7 5.5-6.9 6.5-8.1.2-.3.5-.6.6-.8.1-.5.4-1.4 1-3.2 1.3-3.6 4.9-9.4 8.7-15.5 3.4-5.6 7-11.5 8.8-15.5 2.4-5.3 9.7-21.3 26.2-36 7.1-6.3 8-10.6 9.1-16.4.9-4.7 2.1-10.6 6.9-18.4 7-11.3 19.7-18.3 32-25 6.9-3.8 13.4-7.3 18.6-11.5 10.5-8.3 21.5-8.2 30.4-8.1 2.8 0 5.4.1 7.7-.2 1.6-.2 2.8-.5 3.8-.9 4.8-2 5.8-16.1 5-24.9l7-.7c.4 4.5 2 27.3-9.3 32.1-1.6.7-3.5 1.1-5.8 1.4-2.7.3-5.5.3-8.5.2-8.2-.1-17.5-.2-26 6.6-5.7 4.5-12.8 8.4-19.6 12.1-11.5 6.3-23.4 12.8-29.4 22.6-4.2 6.7-5.1 11.5-6 16.1-1.2 6.4-2.4 12.4-11.3 20.3-13.8 12.3-20.6 25.1-24.5 33.6-2 4.4-5.7 10.5-9.2 16.3-3.4 5.6-7 11.4-8.1 14.4-.5 1.4-.7 2-.8 2.5-.4 1.6-.8 2.1-2.1 3.5-1 1.2-2.8 3.3-6.4 7.9-5.2 6.7-11.1 10.2-16.7 13.5-5.8 3.5-11.3 6.7-15.5 13.6-4 6.6-7.2 12.4-10.1 17.5-3.4 6.1-6.3 11.4-9.8 16.6-2.8 4.2-10 13.6-17.5 23.6-9.3 12.3-19.8 26.1-21.9 29.9-.8 1.5-2.3 3.8-4.2 7.1-7.6 12.5-23.5 38.4-36.8 68.6-8.4 19.3-14.6 38-19.9 54.5-5.1 15.5-9.4 28.8-14.2 37.6-9.6 17.6-184 253.6-200.6 268.4-8.8 7.9-24.9 16.6-40.4 25.1-13.6 7.4-27.6 15.1-31.5 19.7-8.6 10.2-54.3 57.5-56.3 59.5z"/>
  <path fill="#1B1D3C" d="M1218.5 314.4c-23.7 0-43-.6-47.2-2.4-3.2-1.4-5.8-3-8.5-4.8-7.1-4.6-15.1-9.8-40.5-13.2-17.4-2.3-22.2-1.9-25.8-1.7-4.4.3-7.5.4-20.4-2.3-12.9-2.7-20.9-6.9-27.4-10.3-6.6-3.4-10.9-5.7-17.2-4.7-4.2.7-9.2 3.9-15.1 7.6-12.2 7.7-27.4 17.3-46.6 11.8-16.4-4.6-25.3-11.3-33.2-17.2-5.3-4-9.9-7.4-16-9.5-7.3-2.5-13-3-18.1-3.3-5.6-.4-11-.8-16.6-4.1-3.9-2.3-6.8-5.4-9.5-8.4-4.5-4.9-8.8-9.6-17.7-10.9-4.2-.6-7.7-.5-10.9-.5-8.5.2-15.9.4-25.5-13.7-3.1-4.5-5.8-7.9-8.2-11-7-8.8-11.1-14.2-9.8-27.5.8-8.1 4.9-16.7 8.8-25.1 4.2-9 8.6-18.2 8.6-26.3 0-6.7-.8-11.9-1.5-16.5-1-6.5-1.9-12.2.1-19.3 1.5-5.2 3.8-8.4 5.8-11.2 2.5-3.6 4.4-6.1 4.4-12.3 0-12.3-3.9-45.6-4-45.9l7-.8c.2 1.4 4 34 4 46.7 0 8.5-2.9 12.5-5.7 16.4-1.8 2.6-3.6 5-4.7 9.1-1.6 5.6-.9 10.1.1 16.3.8 4.8 1.6 10.2 1.6 17.6 0 9.6-4.7 19.6-9.3 29.3-3.8 8.1-7.5 15.8-8.2 22.8-1 10.5 1.7 14 8.4 22.5 2.5 3.1 5.3 6.7 8.4 11.4 7.4 10.9 11.5 10.8 19.6 10.6 3.4-.1 7.3-.2 12.1.5 11.3 1.7 16.9 7.8 21.8 13.1 2.5 2.8 4.9 5.4 7.9 7.1 4.2 2.4 8.3 2.7 13.5 3.1 5.2.4 11.7.9 19.9 3.7 7.1 2.5 12.3 6.4 17.9 10.5 7.4 5.5 15.9 11.8 31 16.1 16.2 4.6 29.3-3.7 40.9-11 6.5-4.1 12.1-7.6 17.7-8.6 8.6-1.4 14.6 1.7 21.6 5.4 6.1 3.2 13.6 7.1 25.6 9.7 12.6 2.7 14.9 2.5 18.4 2.2 3.8-.3 9.1-.7 27.2 1.7 26.9 3.6 36 9.5 43.3 14.2 2.5 1.6 4.7 3.1 7.4 4.2 7.5 3.2 95.3 1.5 148.8-.3l.2 7c-14.3.6-65.3 2.2-104.4 2.2z"/>
  <path fill="#1B1D3C" d="M860.1 437.6c-2.5 0-5-.1-7.4-.3-13.7-1.2-16.6-7-19.4-12.6-1.4-2.8-2.7-5.5-5.6-8.1-3.8-3.5-5.2-3.2-8.1-2.6-3 .6-7.1 1.5-13.4-1.6-4.8-2.4-14.5-4.6-23.8-6.7-14.5-3.3-23.6-5.5-27.4-8.9-6.1-5.3-34.8-20-52.6-26.2-16.4-5.7-30.6-27.8-43.2-47.4-2.4-3.7-4.6-7.2-6.8-10.4-11.8-17.6-10.4-36-9.6-45.9.2-1.9.3-3.6.3-4.8 0-3.1-9.7-9.1-18.3-12.3l2.4-6.6c5.4 2 22.8 9.3 22.8 18.9 0 1.5-.1 3.3-.3 5.4-.8 9.7-2.1 25.9 8.4 41.5 2.2 3.3 4.5 6.8 6.9 10.5 11.4 17.7 25.6 39.7 39.6 44.6 18.8 6.5 48.3 21.8 55 27.6 2.8 2.4 14.7 5.1 24.3 7.3 10.2 2.3 19.8 4.5 25.3 7.2 4.1 2 6.4 1.6 8.9 1 4.4-.9 8.3-1.2 14.3 4.3 3.8 3.5 5.7 7.2 7.1 10.1 2.4 4.9 3.9 7.9 13.8 8.7 15.7 1.4 33-2.1 54.3-10.8 13.2-5.4 29.5-9.4 38.7-11.4-1.5-1.9-2.7-4.4-2.7-7.5 0-3.6 2.6-6.3 5.2-9 4.5-4.8 6.9-7.8 2.7-13.4-9.4-12.6-19.2-33.5-15.7-51.1 3.4-17 31.8-37.9 33-38.8l4.1 5.6c-7.6 5.6-27.9 22.7-30.3 34.5-2.9 14.3 5.2 33.2 14.4 45.5 8 10.6 1 18-3.2 22.4-1.2 1.3-3.2 3.4-3.2 4.2 0 3.1 3.2 5.3 4.5 6 1.4.8 2.2 2.4 1.9 3.9-.3 1.6-1.5 2.8-3 3.1-4.3.8-26.9 5.3-43.8 12.3-19.1 8-35.2 11.8-50.1 11.8z"/>
  <path fill="#1B1D3C" d="M1280.3 633.7c-20.1 0-27.3-3.4-40.5-9.7-6.4-3.1-14.5-6.9-26.4-11.4-15.9-6-24.4-13.4-32.7-20.5-11.7-10.2-23.9-20.7-59.3-27.5-54.9-10.6-93.5 29.4-108.1 44.4-1.1 1.1-2 2-2.7 2.8-11.7 11.7-55.9 28.1-102.3 19.2-38.9-7.5-74.5-10.3-119.6-13.9-7.3-.6-15-1.2-22.9-1.9-29.6-2.4-53.3-13-76.2-23.2-23-10.3-44.7-19.9-71.7-21.9-32.1-2.3-67.6 8.7-98.9 18.5-22.1 6.9-41.2 12.8-55.9 13.2-26.1.6-39.5-3.2-50.3-6.2-3.8-1.1-7.1-2-10.5-2.6-13.5-2.4-111.1-42.6-117.6-45.2-4.8-1.3-90-24.6-114.3-30-17-3.7-26.7-1.1-36 1.3-4.2 1.1-8.2 2.2-12.7 2.7-8 .9-18.6-1.2-30.9-3.6-10.5-2.1-22.5-4.4-34.6-5.1-26.7-1.5-55-17.1-56.2-17.7l3.4-6.1c.3.2 28.1 15.5 53.1 17 12.6.8 24.8 3.1 35.5 5.2 11.7 2.3 21.8 4.3 28.8 3.5 4-.4 7.7-1.4 11.6-2.5 9.7-2.6 20.7-5.5 39.3-1.4 25.1 5.5 114 29.9 114.9 30.1l.4.1c35.7 14.7 106 43.1 116.4 44.9 3.7.7 7.4 1.7 11.2 2.7 10.3 2.9 23.2 6.5 48.3 5.9 13.7-.3 32.3-6.1 53.9-12.8 31.9-9.9 68-21.2 101.5-18.8 28.2 2 51.5 12.4 74 22.4 22.4 10 45.6 20.3 73.9 22.7 8 .7 15.6 1.3 22.9 1.9 45.3 3.6 81.1 6.5 120.4 14 43.4 8.3 85.6-6.8 96-17.2.7-.7 1.6-1.7 2.6-2.7 13.8-14.3 55.8-57.8 114.4-46.4 37.3 7.2 50.1 18.4 62.6 29.1 8.1 7.1 15.8 13.7 30.6 19.2 12.2 4.6 20.4 8.5 27 11.6 13.8 6.5 20 9.5 42.9 8.9l34.8-.9.2 7-34.8.9h-5.5z"/>
  <path fill="#1B1D3C" d="M216.3 523.8l-1.6-2.5c.2-.1 21.2-13.6 32.6-25.5 4.7-5 6.8-9 8.8-12.9 2.8-5.5 5.6-11.1 15.7-18.9 10.1-7.9 35.4-17.3 59.9-26.4 16.4-6.1 31.9-11.8 40-16.2 6.9-3.7 10.8-6.8 14.9-10 7.6-6 15.5-12.1 42.7-22.5 15.4-5.8 22.6-9.3 26.9-11.4 6.4-3.1 6.7-3.2 15.7-2.7 1.6.1 3.6.2 5.9.3 23.5 1 64.7 3.4 65.2 3.4l-.2 3c-.4 0-41.7-2.4-65.1-3.4-2.4-.1-4.3-.2-6-.3-8.4-.5-8.4-.5-14.2 2.4-4.4 2.1-11.7 5.7-27.2 11.5-26.8 10.2-34.5 16.2-41.9 22-4 3.2-8.2 6.5-15.4 10.3-8.3 4.5-23.9 10.3-40.4 16.4-23.1 8.6-49.3 18.3-59.1 25.9-9.5 7.4-12.1 12.5-14.8 17.9-2.1 4.1-4.2 8.3-9.3 13.6-11.6 12.2-32.3 25.4-33.1 26z"/>
  <path fill="#1B1D3C" d="M661.8 201.5l-53.4-17.7c-2.6-.9-63.4-21.2-73.9-25.9-8.4-3.8-19-12.5-26.8-18.8-2.2-1.8-4.1-3.4-5.7-4.5-3.6-2.8-8.3-3.9-12.8-4.9-3.8-.9-7.3-1.7-10.3-3.4-3.1-1.8-4.5-3.8-6-5.9-1.7-2.4-3.6-5.1-8.8-8.4-5-3.2-15.2-5.6-25.9-8.2-10.3-2.5-21-5-29.3-8.6-17.1-7.5-30.7-31.3-31.2-32.3l2.6-1.5c.1.2 13.6 23.9 29.8 31 8 3.5 18.5 6 28.7 8.4 11 2.6 21.4 5.1 26.8 8.5 5.8 3.6 7.9 6.7 9.7 9.2 1.4 2 2.5 3.5 5 5 2.6 1.5 5.9 2.3 9.4 3.1 4.8 1.1 9.8 2.3 13.9 5.5 1.6 1.2 3.5 2.8 5.7 4.6 7.7 6.3 18.2 14.8 26.1 18.4 10.4 4.7 73 25.6 73.6 25.8l53.3 17.7-.5 2.9z"/>
  <path fill="#1B1D3C" d="M468.3 528.9c-.1-.4-14.5-41.7-20.7-48.9-4-4.7-12.7-6-20.3-7.2-4-.6-7.8-1.2-10.4-2.2-4.6-1.8-5.4-4.8-6.2-7.5-.5-1.9-1-3.6-2.6-4.9-4.6-3.8-9.4-20.3-10.7-25.3-1.8-6.8-6.3-21.7-6.4-21.9l1-.3c0 .2 4.5 15.1 6.4 21.9 2.7 10.1 6.9 22 10.4 24.8 1.9 1.5 2.4 3.5 3 5.4.8 2.7 1.5 5.3 5.6 6.9 2.5 1 6.2 1.5 10.2 2.1 7.8 1.2 16.6 2.5 20.9 7.5 6.3 7.4 20.3 47.5 20.9 49.3l-1.1.3z"/>
  <path fill="#1B1D3C" d="M771.9 276.8c-2.3 0-3.5-.7-5-1.8-.7-.5-1.6-1.1-2.8-1.7-2-1-3.2-1.8-4.7-2.7-1.7-1.1-3.8-2.5-8.2-4.8-7.2-3.9-13.1-11.9-15.6-15.3-.4-.5-.7-.9-.9-1.2-1.9-2.3-1.9-7.3-.1-10.1 1.1-1.7 4.4-11.9 6.4-18.3l.1-.4.4-.2c.4-.2 10.8-5.8 13.8-6.8 2.7-.9 6.9-.3 12.3.4 1 .1 2.1.3 3.1.4 7.5.9 14.6 4.2 21.1 9.7 3.4 2.9 3.9 3.9 3.8 4.9-.1.9-.8 1.2-1.3 1.5-.6.3-.6.4-.6.6.2 3-1.2 11.8-3 17-.8 2.2-.8 5.1-.8 8.5 0 4 0 8.6-1.3 13.6-1.9 7.3-5.4 6.9-9.1 6.5-1.5-.2-3-.3-4.7 0-1.1.1-2 .2-2.9.2zm-29-55c-.9 2.9-5 16.2-6.5 18.5-1.3 2-1.4 6.1-.1 7.7.2.3.5.7.9 1.2 2.4 3.3 8.2 11.1 15 14.7 4.4 2.4 6.6 3.8 8.3 4.9 1.4.9 2.6 1.7 4.5 2.6 1.4.7 2.3 1.3 3 1.9 1.7 1.2 2.5 1.8 6.4 1.2 1.9-.3 3.7-.1 5.2 0 3.6.4 5.5.6 7-5 1.2-4.7 1.3-9.2 1.3-13.1 0-3.5 0-6.6.9-9.1 1.8-5.2 3.1-13.8 2.9-16.2-.1-1.6 1.1-2.3 1.7-2.6 0 0 .1 0 .1-.1-.2-.4-.9-1.2-3-3-6.2-5.3-12.9-8.4-20-9.3-1.1-.1-2.1-.3-3.2-.4-4.9-.6-9.2-1.2-11.4-.4-2.4.9-11.1 5.5-13 6.5z"/>
  <path fill="#1B1D3C" d="M794.374614 226.83048l28.53994-1.857031.129862 1.9958-28.53994 1.857032z"/>
  <path fill="#1B1D3C" d="M737.6 234.3c-.1-.1-10.6-5.4-18.9-8.8-3.2-1.3-7-2.5-11-3.8-6.6-2.1-13.4-4.3-17.6-6.9-6.5-4-24.3-12.7-24.4-12.8l.9-1.8c.7.4 18.1 8.9 24.6 12.9 4 2.4 10.7 4.6 17.2 6.7 4.1 1.3 7.9 2.6 11.2 3.9 8.4 3.4 19 8.8 19.1 8.8l-1.1 1.8z"/>
  <path fill="#1B1D3C" d="M649.5 292.1l-1.2-1.6c.9-.7 22.7-17.7 29.8-22 7.2-4.4 22.9-10.6 32.5-13.4 9.3-2.7 23.2-9.5 23.4-9.6l.9 1.8c-.1.1-14.2 6.9-23.7 9.7-9.5 2.8-25 8.8-32 13.1-7.1 4.4-29.5 21.9-29.7 22z"/>
  <path fill="#1B1D3C" d="M672.8 335.5l-.5-.9-.6-.8c.1-.1.4-.3.9-.7 11.8-9.3 19.6-14.7 23.3-16 2.5-.9 5.5-1.4 8.7-2 5-.9 10.1-1.8 13.1-4.2 1.1-.9 2.2-1.8 3.3-2.8 4.3-3.6 9.2-7.8 13.6-9.4 5-1.9 11.5-9.7 13.7-13 2.4-3.6 11.3-14.9 11.7-15.4l1.6 1.2c-.1.1-9.2 11.7-11.6 15.2-1.9 2.9-8.7 11.5-14.7 13.8-4 1.5-8.8 5.5-13 9-1.2 1-2.3 1.9-3.4 2.8-3.4 2.7-8.8 3.7-14.1 4.6-3.1.5-6 1-8.3 1.9-2.4.9-8.3 4.3-22.8 15.7-.8.9-.8 1-.9 1z"/>
  <path fill="#1B1D3C" d="M774.4 352.6c-.1 0-5.3-2.9-8.9-5-2.8-1.6-3.9-5.5-5.2-10-.6-2-1.2-4.1-2-6.1-2.1-5.3 2-14.1 5-20.6.9-2 1.7-3.7 2.2-5.1 1.9-5.3.5-12.5-2.1-15.6-2.9-3.6-3.1-16.9-3.1-18.4h2c0 3.9.6 14.6 2.7 17.2 2.9 3.6 4.6 11.6 2.4 17.6-.5 1.4-1.3 3.2-2.3 5.2-2.8 6.1-6.7 14.6-5 19 .8 2.1 1.4 4.2 2 6.3 1.2 4.1 2.2 7.6 4.3 8.9 3.5 2.1 8.7 4.9 8.8 4.9l-.8 1.7z"/>
  <path fill="#1B1D3C" d="M719.9 372.5l-.5-1.9 22.9-6.3c.2 0 13.6-3.4 18-6 1.3-.8 2.9-1.6 4.5-2.4 3.8-1.9 8.2-4.2 11.4-7.2 4.7-4.5 19.3-18.2 19.3-18.2l12.6-10.6 1.3 1.5-12.7 10.6s-14.5 13.7-19.2 18.2c-3.5 3.3-7.9 5.5-11.9 7.6-1.6.8-3.1 1.6-4.4 2.3-4.6 2.7-17.9 6-18.5 6.2l-22.8 6.2z"/>
  <path fill="#1B1D3C" d="M856.5 432.3c-.3-.3-7-8.6-8.6-12.4-.3-.8-.7-1.6-1-2.4-1.2-3-2.7-6.5-5.5-12-3.2-6.2-3.7-11-4.4-18.1-.1-1.2-.3-2.5-.4-3.9-.7-6.5-3.2-10.4-6.6-15.7-1.4-2.2-3-4.7-4.6-7.6-5.4-9.8-12.9-28.8-14.6-34.2-1.5-4.8-9.4-15.6-13-19.4-7.1-7.6-12.5-14.4-15.7-19.7-4.5-7.4-4.6-10.7-4.6-11.1h2-1 1s.1 3.1 4.3 10c3.1 5.2 8.5 11.9 15.4 19.4 3.3 3.5 11.7 14.8 13.4 20.2 1.7 5.4 9.1 24.2 14.4 33.8 1.6 2.9 3.2 5.3 4.5 7.5 3.4 5.4 6.1 9.6 6.9 16.6.2 1.4.3 2.7.4 3.9.7 7.1 1.2 11.4 4.2 17.4 2.9 5.6 4.3 9.1 5.6 12.2.3.8.7 1.6 1 2.4 1.5 3.5 8.2 11.8 8.3 11.9l-1.4 1.2z"/>
  <path fill="#1B1D3C" d="M944.6 400.1c-.4-.2-10.6-5.8-13.8-8-2.7-1.8-5-5.4-7.2-8.8-.5-.8-1-1.5-1.5-2.3-1.3-2-3.3-4-5.3-6-1.8-1.8-3.7-3.7-5.2-5.8-2-2.7-4.8-3.5-8-4.5-1.5-.4-3-.9-4.5-1.5-5.1-2.2-20-9.9-28.9-16.3-3.4-2.4-7-4.9-11.2-7.7-6.7-4.5-15-10.2-25.2-17.7-10.7-7.9-14.4-13.2-17.9-18.3-1.9-2.8-3.8-5.4-6.7-8.4-8.3-8.6-22.8-21.3-22.9-21.4l1.3-1.5c.1.1 14.7 12.9 23 21.5 3 3.1 5 6 6.9 8.7 3.5 5 7.1 10.1 17.5 17.8 10.2 7.5 18.1 12.9 25.1 17.7 4.2 2.9 7.9 5.3 11.3 7.8 8.8 6.4 23.5 14 28.6 16.1 1.5.6 2.9 1.1 4.3 1.5 3.4 1 6.6 2 9 5.2 1.4 1.9 3.3 3.8 5 5.6 2.1 2.1 4.1 4.2 5.5 6.3.5.7 1 1.5 1.5 2.3 2.1 3.3 4.3 6.7 6.7 8.3 3.1 2.1 13.5 7.8 13.6 7.9l-1 1.5z"/>
  <path fill="#1B1D3C" d="M755 215.1c0-.1-4.8-5.7-8.5-11-2-2.8-2.9-7.1-3.8-11.6-.9-4.2-1.9-8.9-3.9-13.1-3.1-6.4-1.6-11.3.2-16.9.8-2.5 1.6-5 2.1-8 1.5-8.1.1-12.6-2.3-20.9-.5-1.7-1-3.5-1.6-5.6-3-10.6 1.9-34.2 3.5-42 .2-.9.4-1.7.4-1.9l2 .1c0 .2 0 .4-.4 2.2-4.2 20.5-5.4 34.3-3.5 41 .6 2 1.1 3.9 1.6 5.5 2.4 8.3 3.9 13.2 2.3 21.8-.6 3.1-1.4 5.8-2.2 8.2-1.7 5.4-3.1 9.7-.3 15.4 2.1 4.4 3.2 9.3 4.1 13.6.9 4.3 1.8 8.3 3.5 10.8 3.6 5.2 8.3 10.8 8.4 10.8l-1.6 1.6z"/>
  <path fill="#1B1D3C" d="M746.5 204.2c-.1-.1-5.8-6.6-10-10.2-2.1-1.8-6.5-3.9-11.6-6.3-5.4-2.6-11.4-5.5-17.5-9.2-11.6-7-17.5-6.4-17.5-6.4l-.3-2c.3 0 6.6-.8 18.9 6.7 6 3.6 12 6.5 17.3 9.1 5.4 2.6 9.7 4.7 12 6.6 4.3 3.7 10 10.1 10.2 10.4l-1.5 1.3z"/>
  <path fill="#1B1D3C" d="M773.9 216.2c-.1-.4-2.3-9.6 2.2-14.4l2.3-2.3c3.3-3.2 6.2-6 6.4-12.2.1-2.3.1-4.6.1-6.8.1-5.6.1-10.5.9-13.6 1.1-4.4 10.7-25.8 11.7-27.9.6-1.2 1.2-4.1 1.9-6.9.4-1.8.8-3.6 1.2-5.1.5-1.7 2.1-5.2 4-9.2 2.2-4.7 4.7-10 5.2-12.3.4-1.5.1-2.9-.1-4.3-.4-2.4-.8-5 1.9-8 4-4.3 21.1-15.7 21.8-16.2l1.1 1.7c-.2.1-17.6 11.9-21.5 15.9-2.1 2.2-1.8 4-1.4 6.3.2 1.5.5 3.2.1 5.1-.6 2.6-3 7.7-5.4 12.7-1.8 3.8-3.4 7.4-3.9 8.9-.4 1.4-.8 3.2-1.2 5-.7 3-1.3 5.9-2 7.3-1 2-10.5 23.3-11.6 27.5-.7 2.9-.8 7.9-.9 13.1 0 2.2-.1 4.5-.1 6.8-.2 7-3.5 10.2-7 13.5l-2.3 2.3c-3.8 4-1.8 12.5-1.7 12.6l-1.7.5z"/>
  <g fill="#D05C32">
    <path d="M821.2 577.5c.8 0 1.3.2 1.3.6.8 3.7 2 8.4 3.6 14.1 1.2 6.2 2.2 10.2 2.9 12 0 .2-1.1.3-3.2.3-.5 0-1-.1-1.5-.1-.5.1-.8.1-1 .1-.2 0-.3-.4-.3-1.3l-.6-2.5h-.8c-.4 0-.8 0-1.1-.1-1.2.1-1.9.1-2.2.3-.1 0-.2-.1-.4-.1-.2.4-.4 1.6-.8 3.4l-.4.1s-.5 0-1.6-.1c-.2 0-.6 0-1.2.1-.2 0-.6 0-1.3-.1-.3 0-.5.1-.7.1h-.3v-.1l.6-2.7c.3 0 .6-1.8 1.1-5.5.1-.1.4-1.4.9-3.9 0-.6.4-2.3 1.2-5.1.2-2.2.8-4.8 1.6-7.8 0-1.1.2-1.6.7-1.6.3 0 .8 0 1.4.1 1.3-.1 2-.2 2.1-.2zm-1.5 13.2c-.6 3-.9 4.7-.9 5.2 1.1-.1 1.9-.2 2.3-.2l-1-5h-.4z"/>
    <path d="M836.1 577.2c.3 0 .6 0 1 .1 1.1 0 1.9-.1 2.2-.1 2.2.1 3.3.2 3.5.2.2 0 .5-.1.7-.1h.6c-.1 0-.2-.1-.2-.2l.5.2h.6c.5 0 .8.2.8.6 0 1.2 0 2.5.1 3.9-.1.4-.4.6-.7.6-.3 0-.5-.1-.5-.1l-.4.1-.1-.1-.2.1c-.4 0-.8-.1-1.3-.2-.2 0-.4.1-.4.1-.4 0-.6 0-.6-.1-.5 0-.8.1-1.2.1h-1.9c-.1 0-.2 0-.3.1-.1-.1-.2-.1-.3-.1h-.7.1v2.9h-.2c.1 0 .7-.1 1.8-.3 2.6 0 4.6 1.2 5.9 3.7.6 1.4 1 3.3 1.2 5.7l-.1.2s0-.1.1-.1l-.1.6v.5c0 2.2-.7 4.4-2.1 6.5-1.7 1.8-3.7 2.8-6.2 2.8h-.4c-1.6 0-3.1-.6-4.6-1.8-1-1.2-1.7-2.8-2.1-4.7 0-.3 0-.4.1-.4l-.1-.6v-1.2c0 .1 0 .2-.1.2.1-1 .4-1.5 1.1-1.5 1.3.1 2.1.2 2.3.2 0 0 .3 0 .7-.1l.8.2v.9c0 1.7.3 2.8.8 3.2.5.6 1 .9 1.5.9h.1c1.2 0 2-.6 2.4-1.9.4-.5.7-1.8.9-4.1v-.5c-.1-1.1-.3-2-.6-2.6-.6-.8-1.4-1.2-2.5-1.2-.5 0-1.1.3-1.6.9-.6 1.1-1.1 1.6-1.4 1.8h-2.8c-.6 0-.9-.8-.9-2.4.1-.5.1-1.3.1-2.4h-.2l.2-.5c.1-2.2.1-3.7.1-4.6l.1-.6c0-.1-.1-.2-.1-.3l.1-.4c0 .1 0 .1-.1.1l.1-1v-.3c0-1.9.2-2.9.7-2.9-.1 0-.2 0-.2-.1.8.1 1.6.1 2.1.2 1.4 0 1.8-.1 1.9-.1z"/>
    <path d="M856.6 577c3.2 0 5.4 1.6 6.6 4.8.5.8 1 3.5 1.6 7.8 0 .5 0 .8.1.8l-.1.7c0 5.7-.9 9.4-2.6 11.1-.5 1-1.7 1.8-3.5 2.5l-2.3.4c-1.1 0-2.5-.5-4.2-1.5-1.1-1.6-1.9-2.9-2.3-3.9-1.1-2.7-1.6-5.4-1.6-8 0 0-.1-.1-.1-.4 0-.3.1-.5.1-.7v-.1c0-.1 0-.2-.1-.3.2-3.2.6-5.6 1.2-7.2 1.2-2.9 2.5-4.6 3.8-5.1 1.2-.7 2.4-.9 3.4-.9zm-2.6 10.4l.1.2-.2.4v1.6c0 .3 0 .5-.1.7.1 1.8.2 2.7.4 2.7l-.2.5v.1c.5 4.3 1.3 6.4 2.6 6.4h.1c.6 0 1.2-.6 1.8-1.9.6-1.9.8-4.3.8-7v-.2c0-4.3-.5-7.1-1.6-8.4-.5-.3-.9-.4-1.4-.4-1.1.4-1.6.9-1.6 1.6-.3 1-.6 2.3-.7 3.7z"/>
  </g>
  <g fill="#D05C32">
    <path d="M835.8 183.8l2.9-.1c.2 0 .4.1.5.1v-.1l.1.1c3.3 0 5.2.5 5.7 1.6 1.4 1.2 2.2 2.4 2.5 3.7.7 1.1 1.1 2.8 1.1 4.9.1.1.2.6.3 1.6v.1c0 .5-.1 1.3-.3 2.4 0 1.2.1 1.9.1 2.2-.2 2.4-.5 3.9-.9 4.5l-1.4 2.7c-.8 1.1-2 2-3.4 2.5-.5.3-1.3.5-2.2.6-.1 0-.1 0-.1-.1l-.9.1h-.1c-1.4 0-2.8 0-4.3-.1v.1c-.2-.1-.4-.1-.5-.1l-.4.1c-.3-.1-.4-.2-.4-.3 0-.4-.1-1.6-.2-3.7l.4-3.4c0-.1 0-.2-.1-.3l.2-2.8h-.1c0-.1.1-.2.1-.2 0-.4 0-.8.1-1.3l-.1-1.5s0-.1.1-.2c0-.3-.1-.5-.1-.6v-.4s0-.1-.1-.1l.1-.1v-.5c0-.4 0-.6.1-.8 0-.3-.1-.6-.1-.9v-1.1c0-.2 0-.5-.1-.8 0-.1.1-.2.1-.2 0-.4-.1-.6-.1-.7l.1-2s0-.1-.1-.1c0-.2.1-.3.1-.3 0-.1 0-1.1-.1-2.8l.1-.6-.1-.1c0-.5.2-.8.7-.8h.6c.1-.2.2-.2.2-.2 0-.1 0-.1 0 0zm3.8 5.4l-.1.2v.5c0 .5 0 1.1-.1 1.7l.1.1-.1.3c.1 1.6.2 3.4.2 5.3 0 .5 0 1.6-.1 3.2h.1c0 .1-.1.5-.1 1.1h.1l-.1.1v2c0 .1 0 .2.1.3 0 .1-.1.2-.1.2l.1.4c0 .2-.1.4-.1.5 0 .2.2.3.4.3 0 0 .1 0 .1-.1l.1.1c.9 0 1.8-.4 2.7-1.1.8-1.7 1.1-4.1 1.1-7.2v-.4s0-.1-.1-.1c0 0 0-.1.1-.1-.3-4.3-.7-6.4-1.1-6.4-.2-.2-.6-.6-1.2-1h-.7c-.4.2-.8.2-1.3.1z"/>
    <path d="M858 183.2c.6.1.9.1 1.1.1.5 0 1.7 0 3.7.1.4 0 .6.5.6 1.6 0 .3 0 .5.1.6l-.1.1c0 .3.1.5.1.6 0 1.1-.3 1.6-.9 1.6-.1 0-.4 0-.8.1-.2 0-1.2 0-3-.1-.7 0-1.2.1-1.5.1 0 0 0 .1-.1.2 0 .1 0 .2.1.2 0 .6-.1 1-.1 1.3 0 1 0 2.5.1 4.4h.4s.1 0 .1-.1l.1.1.5-.1c.5.1.9.1 1.3.1h2.1c.9.1 1.4.3 1.4.6-.1 1-.2 2.2-.3 3.7h.1c-.1.5-.4.7-1 .7-.8-.1-1.3-.1-1.4-.1-1 .1-1.8.1-2.2.1h-.1s-.1 0-.1.1l-.1-.1h-.9l-.1 1.9c0 .2.1 1.4.1 3.6h.1l-.1.1v.1c0 .1.2.2.5.3 1.1-.2 1.8-.3 2.2-.3l1.6.2c.3 0 .5-.1.7-.1h.5c.3 0 .5.1.6.4 0 1.2-.1 2.2-.1 2.9v.3c0 .3 0 .6.1 1 0 .2-.1.3-.3.4l-.1-.1h-.6c-.5.1-.8.2-1.1.2-.5 0-1.6 0-3.2.1v.1l-.1-.1h-.3c-.3 0-1 .1-2.2.2-.9-.1-1.6-.2-1.9-.2h-1.1c-.4 0-.6-.2-.7-.5l.1-.4c0-.5 0-.9.1-1.2 0-.5-.1-.9-.1-1.3 0-.3.1-1.6.3-3.7 0-.1-.1-.2-.1-.2l.1-.1-.1-.1c0-.1 0-.1.1-.1l-.1-.5c0-.2 0-.3.1-.4-.1-.9-.2-2.3-.3-4.2.1-.5.1-.8.2-1.1l-.1-.4v-.1c0-.2 0-.5.1-.7l-.1-.4.1-.4c0-.9-.1-1.3-.1-1.3l.1-.4v-.6c0-.3 0-.4-.1-.5 0-.3.1-.5.1-.6 0-.6 0-1.9-.1-3.7h-.1l.1-.1v-1.6c0-.2 0-.3-.1-.4l.1-.4v-1c0-.1.2-.2.6-.3l.4.1h2c1.7-.2 2.8-.3 3.1-.3z"/>
    <path d="M867.1 183.1c1.1 0 2 .1 2.8.1.3 0 .7 0 1.1-.1.2 0 .4.1.5.1 0 0 .1 0 .2-.1 3.4 0 5.7 1.8 6.9 5.4l.5 2s0 .1-.1.3c.1.8.2 1.6.2 2.5v.3c0 .1 0 .2.1.3-.4 3.1-.8 4.6-1.1 4.6 0 .3-.7 1.4-2 3.2 1 3 2.4 5.9 4.1 8.7v.1c-1 .1-1.9.2-2.7.4-2.2-.3-3.2-.5-3.2-.6-.7-1.9-1.5-3.8-2.4-5.8-.2 0-.6.1-1.1.2v2.3c0 .4 0 .8-.1 1.3 0 .2.1.4.1.5l-.1.9.1.3c-.1.3-.2.4-.4.4-.4 0-.8 0-1.1-.1l-2 .1c-.1 0-.2-.1-.2-.1-.6.1-1.2.2-1.7.2-.2 0-.4-.3-.4-.9v-.6c.3-4.8.4-7.5.4-8.2l-.2-3.8.1-.1s0-.1-.1-.1l.1-.9v-1.1c0-.2 0-.3-.1-.4 0-.1.1-.8.1-2.1 0 0 0-.1-.1-.2l.1-.4v-.7c0-.5 0-1 .1-1.4h-.1s0-.1.1-.1l-.1-.9v-.4c0-.2 0-.5.1-.7l-.1-.3c0-.5.1-.9.1-1.3h-.1l.1-.1v-.7s0-.1-.1-.1l.1-.1c0-.1 0-.5-.1-1.1.2-.4.7-.6 1.7-.7zm3.9 4.9v.3c0 .2 0 .3-.1.4l.1.3c0 .5-.1.9-.1 1.1h.1l-.1.1v1.5s0 .1.1.1c0 .1-.1.3-.1.6 0 .1 0 .3.1.6l-.1 1.4c0 .5.1 1 .1 1.4v.7c0 .6 0 1.4-.1 2.7l.1.1c1.5-.5 2.3-1.1 2.3-1.7.7-.9 1-1.5 1-2 .1-.1.3-1 .4-2.7 0-1-.2-2.2-.6-3.4-.5-1-1.4-1.5-2.7-1.5h-.4z"/>
    <path d="M883.1 183.4l1.4.1c.7-.1 1.3-.1 1.8-.1l.5.1.1-.1c.3 0 .6.1.8.1h.2s.1 0 .1-.1l.1.1h1c1.8.3 3.1.9 3.9 1.8 1.2 1.8 1.9 4.1 1.9 7-.4 2.4-.8 3.7-1.1 3.7-.3.4-.5.8-.6.9 1.1.9 1.7 1.9 2 3.2.2.5.4 1.3.6 2.5 0 3.5-1.2 5.8-3.7 7.2-1 .7-2.5 1-4.7 1-.2 0-.4-.1-.5-.1v.1c-.7-.1-1.7-.2-3.2-.2H882c-.2 0-.4-1-.4-2.9h-.1s0-.1.1-.1l-.1-.9c0-.8 0-2.2-.1-4l.1-.4-.1-.1.1-.3c0-.8-.1-1.5-.1-2.1h-.1c.1-.2.1-.4.1-.6v-.6c0-.8 0-1.4.1-1.7 0-.5-.1-.9-.1-1.3 0-.3 0-.9.1-1.9l-.4-2.2.3-2.5h-.1l.1-.1v-1.1c.1-.7.1-1.1.1-1.1v-1c0-.7 0-1.3-.1-1.7.5-.4 1-.6 1.7-.6zm3.9 16.2s0 .1.1.2c0 .1 0 .2-.1.3 0 .8.1 1.5.1 2.1v.2c0 .2 0 .4-.1.6 0 .1.1.2.1.3 0 .1 0 .1-.1.1l.1.7v1.1c0 .1.2.2.6.2h.3c2 0 2.9-1 2.9-2.9 0-1.6-.6-2.6-1.9-3.2-.5-.1-.8-.1-1.1-.1h-.5c-.3.3-.4.3-.4.4zm.1-10.9c0 .9 0 2.9.1 5.9h.1c1.2 0 2.1-.5 2.6-1.4.1-.4.1-.7.1-1v-1c-.1-1.6-.6-2.4-1.5-2.4-.6-.1-1.1-.1-1.2-.1-.2-.1-.2 0-.2 0z"/>
    <path d="M896.1 183.8c.4 0 .7.1 1 .1h.6s.1 0 .1-.1c.1 0 .2.1.2.1 1.8 0 2.7.1 2.7.4 1.4 4.4 2.6 7.9 3.6 10.4h.1c.2 0 .8-2 1.9-5.9.8-2.7 1.3-4.3 1.5-4.6l.5-.1h2.2c.4 0 .8 0 1.4-.1.6.1.9.2.9.3 0 .2-1.7 5.2-5.2 15.1-.6 1.5-.9 3-.9 4.3v4c0 .4 0 .8.1 1.3 0 .1-.1.5-.1 1v.2c0 .2-.8.3-2.4.4h-1c-1.2 0-1.9-.1-1.9-.4 0-.2 0-.3-.1-.3l.1-.1v-1.1c0-.3 0-.5.1-.6 0-.3-.1-.5-.1-.7v-.7c0-.2 0-.5.1-.7l-.1-.4c0-.3 0-.7.1-1.3 0-1-.1-1.9-.1-2.7l-4.6-13.1c0-.1-.5-1.6-1.4-4.5.1 0 .4-.1.7-.2z"/>
  </g>
  <g fill="#D05C32">
    <path d="M405.6 671.9c.8 0 1.2.2 1.2.5.3 1.6.5 2.6.6 2.9v.1c0 .4.3 1.9.8 4.6h.1c.6-2.7 1.1-4.8 1.5-6.5.2-1.1.3-1.6.4-1.6h.1c.3.1.5.1.5.1h.8c1.3 0 2 .1 2 .3-.3.7-.7 2.1-1.1 4-.4 1.4-1.1 4-2.1 7.7-.4 2.6-.7 3.9-.9 3.9-.2.1-.4.1-.7.1l-1.3-.1h-.9c-.3 0-.5-.8-.8-2.5-.3-1.2-.5-2-.6-2.7-.2.7-.3 1.1-.3 1.2-.4 2.6-.7 3.9-.9 3.9-.2.1-.4.1-.7.1l-1.3-.1h-.9c-.3 0-.5-.7-.7-2.2-.5-2.1-.9-4.2-1.2-6.2-.9-3.9-1.5-6.2-1.8-7.2 0-.2.1-.3.2-.3H398.2c.4-.1.7-.1.8-.1.4.1.6.1.8.1.5 0 .8 0 .8-.1.4 0 .6.3.6 1 .2.8.5 2.3.8 4.3 0 0 .2.9.5 2.7h.1s0-.2.1-.5v-.2c.6-1.8.8-2.8.8-2.9.5-2 .9-3.5 1.1-4.5.4.2.6.2 1 .2z"/>
    <path d="M414.8 672c.5.1.7.1.8.1h.7c.4-.1.8-.1 1.1-.1.4 0 .5.2.5.5V677c0 .6-.1 1.6-.1 3v2.5c0 .4.1 1.2.1 2.5V686.9c0 .7-.1 1-.4 1-.6 0-1-.1-1.2-.1h-.5c-.5.1-.9.1-1.3.1-.2 0-.3-.1-.3-.4v-.5-.5c.1-.3.1-1 .2-2V684.2v-.5-.2-.5c0-.5 0-1-.1-1.5v-.2l-.1-2.8.1-2v-.5c-.1-1.9-.2-2.9-.2-3.2v-.8c.1-.1.2-.2.3-.2h.4z"/>
    <path d="M422.3 672l.6.1V676.3c0 .3.1 1.1.1 2.4.1.6.1 1.2.1 1.8v3l.1.6h.5c.7-.1 1.2-.1 1.3-.1.2 0 .6 0 1 .1h.8c.2 0 .3.3.3.8-.1.2-.1.4-.1.4 0 .5 0 1.2-.1 1.9 0 .3-.1.5-.4.5h-2-.4c-.1-.1-.3-.1-.5-.1h-.7c-.4 0-1.3 0-2.7.1-.4 0-.5-.2-.5-.3V684.7v-.7-.5-2.2-.7-.4c0-.5-.1-.7-.1-.8v-.3-1.5-2.7-.1V673.9v-.3-1.5c0-.2.1-.3.3-.3l.8.1c.2-.1.4-.1.6-.1h1z"/>
    <path d="M430.9 672l.6.1V676.3c0 .3.1 1.1.1 2.4.1.6.1 1.2.1 1.8v3l.1.6h.5c.7-.1 1.2-.1 1.3-.1.2 0 .6 0 1 .1h.8c.2 0 .3.3.3.8-.1.2-.1.4-.1.4 0 .5 0 1.2-.1 1.9 0 .3-.1.5-.4.5h-2-.4c-.1-.1-.3-.1-.5-.1h-.7c-.4 0-1.3 0-2.7.1-.4 0-.5-.2-.5-.3V684.7v-.7-.5-2.2-.7-.4c0-.5-.1-.7-.1-.8v-.3-1.5-2.7-.1V673.9v-.3-1.5c0-.2.1-.3.3-.3l.8.1c.2-.1.4-.1.6-.1h1z"/>
    <path d="M436.8 672c.5.1.7.1.8.1h.7c.4-.1.8-.1 1.1-.1.4 0 .5.2.5.5V677c0 .6-.1 1.6-.1 3v2.5c0 .4.1 1.2.1 2.5V686.9c0 .7-.1 1-.4 1-.6 0-1-.1-1.2-.1h-.5c-.5.1-.9.1-1.3.1-.2 0-.3-.1-.3-.4v-.5-.5c.1-.3.1-1 .2-2V684.2v-.5-.2-.5c0-.5 0-1-.1-1.5v-.2l-.1-2.8.1-2v-.5c-.1-1.9-.2-2.9-.2-3.2v-.8c.1-.1.2-.2.3-.2h.4z"/>
    <path d="M443.9 672c.6.1.9.2.9.3 0 .3.8 2.5 2.4 6.5v-.2c-.1-.6-.1-1-.1-1.3v-.3c.1-.3.1-.4.1-.5v-1.8-.4V672.6c0-.3.2-.4.6-.4l.7-.1c.3.1.7.1 1.2.1h.1c.3 0 .4.1.4.3v.6c0 1.1-.1 1.7-.1 1.9V677.3s-.1.2-.1.6V678.6c.1.2.1.9.2 2.3v.9c0 .2-.1.8-.1 1.9.1.7.1 1.4.1 2V687.4c-.1.4-.2.6-.5.6H448.9h-.1c-.5.1-.9.1-1.1.1-.4 0-.6-.3-.8-1l-1-3.3c-.3-.9-.6-1.7-1.2-2.7-.1-.2-.2-.3-.3-.3V682.2c0 .5-.1.8-.1.8v1c0 .1 0 .7.1 1.8v2c0 .4-.2.6-.5.6h-2.2-.3c-.1 0-.1-.1-.1-.2v-.3-.7-.3-.4-.2-.2-1.1-.2c0-1.2.1-2 .1-2.2v-.1V680.9l-.2-1.7v-.2-1.2-.2c0-.7.1-1.9.1-3.5v-.2-.1l.1-.7v-.3c.2-.6 1-.7 2.5-.8z"/>
    <path d="M456 671.8c.9 0 1.8.2 2.7.6.9.8 1.4 1.3 1.6 1.8.5.8.7 1.8.7 3.2 0 .1-.1.1-.3.2 0 0-.2 0-.3-.1-.3.1-.6.1-.9.1h-.4-1.1c-.2-1.2-.3-1.8-.5-1.9l-.5-.4h-.5c-.4 0-.8.3-1.2.8-.4 1.1-.5 2.2-.5 3v1c.1 1.7.2 2.7.3 2.9.3.9.6 1.5 1 1.7.2.1.4.1.5.1h.2c.6-.2.8-.5.8-.8.2-.2.3-.9.5-2h-.1-1-.3c-.1 0-.2-.1-.2-.3v-1.6c0-.3.1-.5.2-.5h2.2l1.9-.1c.3 0 .5.1.5.3V681.5c-.2 1.7-.4 2.7-.6 3.1-.2.7-.5 1.2-.9 1.7l-1 .8c-.7.3-1.4.5-2.3.5-1.4 0-2.4-.5-3.2-1.5-.8-1.6-1.2-2.8-1.2-3.6-.2-.6-.3-1.3-.3-2.2v-.5c0-.8.2-2.2.5-4.3.1-.7.5-1.5 1-2.3.4-.9 1.4-1.4 2.7-1.4z"/>
    <path d="M468.8 671.9c.4.1.7.1.8.1V675.6c0 .2-.1.3-.4.3h-.7H468.2h-1.1s-.1.2-.1.4V676.6l.2 2.9v.3c0 .3 0 .4.1.4v.1c.1.5.1.8.1 1.1 0 .1 0 .6.1 1.3v4c0 .6-.1.9-.4.9-.1 0-.3 0-.5.1h-.6c-.3 0-.7 0-1.1-.1-.6 0-.8-.2-.8-.5v-1.3-.6-.1-1.3-.8-.3-2.4l-.1-1.6c0-.5.1-.9.1-1v-.2-1.8h-2c-.2 0-.3-.1-.3-.2v-.4c0-.6-.1-1.1-.1-1.3v-1.6c0-.3.1-.4.4-.4H463.8c1.1.2 2.8.2 5 .1z"/>
    <path d="M475.9 671.3c.7 0 1.4.3 2.1.9 1.1 1.3 1.6 2.3 1.6 3 .1.2.3 1.2.6 3.1v.1l.2 1.6c0 1.1-.4 2.8-1.1 5.2-.3.8-.8 1.4-1.4 2-.9.5-1.7.8-2.5.8-1.1-.2-1.9-.5-2.3-1-1-1.1-1.8-2.5-2.2-4.2-.1 0-.3-1.2-.4-3.5 0-.8.2-2.2.6-4.2.5-1.3.9-2.1 1.3-2.4.5-.5 1.2-1 2.2-1.3 0-.1.5-.1 1.3-.1zm-2.3 6.5v1.7c.1 3 .6 4.8 1.6 5.4.1.1.2.1.3.1.4 0 .7-.2.9-.6.4-1.3.6-2.7.6-4.1 0-2.9-.3-4.7-1-5.6-.4-.2-.6-.3-.8-.3h-.2c-.4 0-.7.4-1.1 1.1-.2 1.4-.3 2.2-.3 2.3z"/>
    <path d="M483.7 672c.6.1.9.2.9.3 0 .3.8 2.5 2.4 6.5v-.2c-.1-.6-.1-1-.1-1.3v-.3c.1-.3.1-.4.1-.5v-1.8-.4V672.6c0-.3.2-.4.6-.4l.7-.1c.3.1.7.1 1.2.1h.1c.3 0 .4.1.4.3v.6c0 1.1-.1 1.7-.1 1.9V677.3s-.1.2-.1.6V678.6c.1.2.1.9.2 2.3v.9c0 .2-.1.8-.1 1.9.1.7.1 1.4.1 2V687.4c-.1.4-.2.6-.5.6H488.7h-.1c-.5.1-.9.1-1.1.1-.4 0-.6-.3-.8-1l-1-3.3c-.3-.9-.6-1.7-1.2-2.7-.1-.2-.2-.3-.3-.3V682.2c0 .5-.1.8-.1.8v1c0 .1 0 .7.1 1.8v2c0 .4-.2.6-.5.6h-2.2-.3c-.1 0-.1-.1-.1-.2v-.3-.7-.3-.4-.2-.2-1.1-.2c0-1.2.1-2 .1-2.2v-.1V680.9l-.2-1.7v-.2-1.2-.2c0-.7.1-1.9.1-3.5v-.2-.1l.1-.7v-.3c.2-.6.9-.7 2.5-.8z"/>
  </g>
  <g fill="#D05C32">
    <path d="M157 561.1c.8 0 1.1.1 1.1.3v.3l.1 3-.1 2.6v2.8c0 .8.1 1.3.1 1.4v1.4c0 .9 0 1.5-.1 1.7v1.1c0 .7-.1 1.1-.3 1.1h-.8c-.2 0-.3.1-.4.1H155.4c-.1-.1-.2-.4-.2-.9v-.3V575.4v-.2-.7c0-.1 0-.8-.1-1.9v-1.9h-1.6-.5V576.6c0 .1-.1.2-.2.2h-1.1c-.2-.1-.4-.1-.4-.1H150.1v-.6c0-.5 0-1 .1-1.4.1-.3.1-.7.1-1.1v-1.3-.8-.1c-.1-.6-.1-.9-.1-1v-.9-1.7-.2-1-.3c0-.1.1-.5.1-1.3v-1.3-.3-.2-.8c0-.8.1-1.2.3-1.2h.2c.4-.1.6-.1.8-.1.4.1.7.1.9.1h.3c.4 0 .6.1.6.3v5.8c0 .1.1.1.3.1.5 0 1.2 0 2-.1v-.8c0-.4 0-.8-.1-1v-.4-2.5-1.2c.1-.2.1-.3.2-.3 0 .1.6.1 1.2 0z"/>
    <path d="M160.2 561c.5.1.7.1.8.1h.7c.4-.1.8-.1 1.1-.1.4 0 .5.2.5.5V566c0 .6-.1 1.6-.1 3v2.5c0 .4.1 1.2.1 2.5V575.9c0 .7-.1 1-.4 1-.6 0-1-.1-1.2-.1h-.5c-.5.1-.9.1-1.3.1-.2 0-.3-.1-.3-.4v-.5-.5c.1-.3.1-1 .2-2V573.2v-.5-.2-.5c0-.5 0-1-.1-1.5v-.2l-.1-2.8.1-2v-.5c-.1-1.9-.2-2.9-.2-3.2v-.8c.1-.1.2-.2.3-.2h.4z"/>
    <path d="M167.7 561.1l.6.1V565.4c0 .3.1 1.1.1 2.4.1.6.1 1.2.1 1.8v3l.1.6h.5c.7-.1 1.2-.1 1.3-.1.2 0 .6 0 1 .1h.8c.2 0 .3.3.3.8-.1.2-.1.4-.1.4 0 .5 0 1.2-.1 1.9 0 .3-.1.5-.4.5h-2-.4c-.1-.1-.3-.1-.5-.1h-.7c-.4 0-1.3 0-2.7.1-.4 0-.5-.2-.5-.3V573.8v-.7-.5-2.2-.7-.4c0-.5-.1-.7-.1-.8v-.3-1.5-2.7-.1V563v-.3-1.5c0-.2.1-.3.3-.3l.8.1c.2-.1.4-.1.6-.1h1z"/>
    <path d="M178.7 561c.4.1.7.1.8.1V564.7c0 .2-.1.3-.4.3h-.7H178.1 177s-.1.2-.1.4V565.7l.2 2.9v.3c0 .3 0 .4.1.4v.1c.1.5.1.8.1 1.1 0 .1 0 .6.1 1.3v4c0 .6-.1.9-.4.9-.1 0-.3 0-.5.1h-.6c-.3 0-.7 0-1.1-.1-.6 0-.8-.2-.8-.5v-1.3-.6-.1-1.3-.8-.3-2.4l-.1-1.6c0-.5.1-.9.1-1v-.2-1.6h-2c-.2 0-.3-.1-.3-.2v-.4c0-.6-.1-1.1-.1-1.3v-1.6c0-.3.1-.4.4-.4H173.7c1-.1 2.8-.1 5-.1z"/>
    <path d="M185.7 560.3c.7 0 1.4.3 2.1.9 1.1 1.3 1.6 2.3 1.6 3 .1.2.3 1.2.6 3.1v.1l.2 1.6c0 1.1-.4 2.8-1.1 5.2-.3.8-.8 1.4-1.4 2-.9.5-1.7.8-2.5.8-1.1-.2-1.9-.5-2.3-1-1-1.1-1.8-2.5-2.2-4.2-.1 0-.3-1.2-.4-3.5 0-.8.2-2.2.6-4.2.5-1.3.9-2.1 1.3-2.4.5-.5 1.2-1 2.2-1.3.1 0 .6-.1 1.3-.1zm-2.2 6.5s0 .1 0 0v1.7c.1 3 .6 4.8 1.6 5.4.1.1.2.1.3.1.4 0 .7-.2.9-.6.4-1.3.6-2.7.6-4.1 0-2.9-.3-4.7-1-5.6-.4-.2-.6-.3-.8-.3h-.2c-.4 0-.7.4-1.1 1.1-.2 1.5-.3 2.2-.3 2.3z"/>
    <path d="M193.5 561c.6.1.9.2.9.3 0 .3.8 2.5 2.4 6.5v-.2c-.1-.6-.1-1-.1-1.3v-.3c.1-.3.1-.4.1-.5v-1.8-.4V561.6c0-.3.2-.4.6-.4l.7-.1c.3.1.7.1 1.2.1h.1c.3 0 .4.1.4.3v.6c0 1.1-.1 1.7-.1 1.9V566.3s-.1.2-.1.6V567.6c.1.2.1.9.2 2.3v.9c0 .2-.1.8-.1 1.9.1.7.1 1.4.1 2V576.4c-.1.4-.2.6-.5.6H198.5h-.1c-.5.1-.9.1-1.1.1-.4 0-.6-.3-.8-1l-1-3.3c-.3-.9-.6-1.7-1.2-2.7-.1-.2-.2-.3-.3-.3V571.2c0 .5-.1.8-.1.8v1c0 .1 0 .7.1 1.8v2c0 .4-.2.6-.5.6h-2.2-.3c-.1 0-.1-.1-.1-.2v-.3-.7-.3-.4-.2-.2-1.1-.2c0-1.2.1-2 .1-2.2v-.1V569.9l-.2-1.7v-.2-1.2-.2c0-.7.1-1.9.1-3.5v-.2-.1l.1-.7v-.3c.2-.6 1-.7 2.5-.8z"/>
  </g>
</svg>